<svg version="1.2" xmlns="http://www.w3.org/2000/svg" viewBox="0 0 1549 680" width="1549" height="680">
	<title>logo_baesystems_borderless-svg</title>
	<style>
		.s0 { fill: #ed1a3b } 
		.s1 { fill: #ffffff } 
	</style>
	<path id="Layer" class="s0" d="m0 0h1549v679.1h-1549z"/>
	<path id="Layer" class="s1" d="m1304.4 424.9v79.9h-251.7v-334.5h251.7v77h-150.9v48.9h121.9v74.6h-121.9v54.1h150.9z"/>
	<path id="Layer" class="s1" d="m839 504.8l-19.1-65.6h-89.5l-20.3 65.6h-83.6l103.9-334.6h108.6l104.8 334.6h-104.8z"/>
	<path id="Layer" fill-rule="evenodd" class="s1" d="m252.8 170.3h163.9c24.9 0 50.8 1.8 71.9 17.1 5.6 4 10.6 8.7 15.1 14 4.4 5.2 8.2 11 11.3 17.1 3.1 6.1 5.5 12.6 7.2 19.3 1.6 6.6 2.4 13.5 2.4 20.4 0.2 8.3-1.1 16.7-3.8 24.6-2.6 7.9-6.6 15.4-11.7 22-5.1 6.6-11.3 12.4-18.3 16.9-7 4.6-14.8 8-22.9 10 9.1 1.3 17.8 4.2 25.9 8.5 8 4.4 15.2 10.3 21.1 17.2 6 7 10.6 15 13.7 23.6 3 8.6 4.5 17.7 4.3 26.9 0 28.7-8.7 59.1-34.4 78-25.7 18.9-61.9 18.9-92.2 18.9h-153.5z"/>
	<path id="Layer" class="s0" d="m747.5 366l27.3-97.2 27.6 97.2h-54.9z"/>
	<path id="Layer" fill-rule="evenodd" class="s0" d="m347.1 298.8v-56.8h40c19.7 0 40.1 3.3 40.1 28.4q0 3.1-0.7 6.1-0.6 3-1.9 5.8-1.2 2.8-3 5.3-1.8 2.5-4.1 4.6-3.1 2.1-6.6 3.6-3.5 1.5-7.2 2.3-3.7 0.9-7.5 1-3.7 0.2-7.5-0.3z"/>
	<path id="Layer" fill-rule="evenodd" class="s0" d="m347.1 430.3v-60.5h40.6q3.8-0.3 7.6-0.1 3.8 0.1 7.6 0.7 3.7 0.5 7.4 1.5 3.7 1 7.2 2.3c4.5 2.3 8.3 5.7 11.1 9.8 2.8 4.2 4.5 9 4.9 14 0.4 5-0.5 10-2.7 14.6-2.1 4.5-5.4 8.4-9.5 11.3q-3.3 2.1-6.9 3.6-3.6 1.4-7.4 2.2-3.8 0.8-7.7 1-3.9 0.1-7.7-0.4z"/>
</svg>